<?xml version="1.0" encoding="UTF-8" standalone="no"?>
<svg xmlns="http://www.w3.org/2000/svg" fill="none" height="17" viewBox="0 0 24 17" width="24">
  
  <g clip-path="url(#clip0_17394_170165)">
    
    <path d="M1.97751 0H22.3349C23.1376 0 23.789 0.651403 23.789 1.45479V15.2687C23.789 16.0714 23.1376 16.7228 22.3349 16.7228H1.97751C1.17412 16.7229 0.523438 16.0714 0.523438 15.2688V1.45479C0.523438 0.651403 1.17484 0 1.97751 0Z" fill="black"/>
    
    <path d="M7.88743 9.19921H9.11121C9.08665 9.60031 8.97614 9.9564 8.77969 10.2675C8.58595 10.5785 8.31446 10.8214 7.9652 10.996C7.61866 11.1706 7.20119 11.2579 6.71277 11.2579C6.33076 11.2579 5.98832 11.1925 5.68545 11.0615C5.38257 10.9278 5.12335 10.7368 4.90779 10.4885C4.69496 10.2402 4.53261 9.94002 4.42074 9.58804C4.30887 9.23604 4.25293 8.84176 4.25293 8.40518V7.9918C4.25293 7.55522 4.31023 7.16094 4.42483 6.80895C4.54216 6.45423 4.70861 6.15272 4.92417 5.90442C5.14245 5.65612 5.40304 5.46511 5.70591 5.33141C6.00879 5.19771 6.34713 5.13086 6.72095 5.13086C7.21756 5.13086 7.6364 5.2209 7.97748 5.40099C8.32128 5.58108 8.58732 5.82938 8.77559 6.1459C8.96659 6.46242 9.0812 6.82259 9.1194 7.22643H7.89152C7.87788 6.98631 7.83013 6.78303 7.74827 6.61658C7.66641 6.44741 7.54226 6.32053 7.37582 6.23594C7.2121 6.14863 6.99381 6.10497 6.72095 6.10497C6.51631 6.10497 6.33758 6.14317 6.18478 6.21957C6.03198 6.29597 5.90374 6.41194 5.80005 6.56747C5.69636 6.723 5.6186 6.91946 5.56675 7.15685C5.51764 7.39151 5.49308 7.6671 5.49308 7.98362V8.40518C5.49308 8.71352 5.51627 8.98501 5.56266 9.21967C5.60905 9.4516 5.67999 9.64806 5.77549 9.80905C5.87372 9.96731 5.99924 10.0874 6.15204 10.1692C6.30757 10.2484 6.49448 10.2879 6.71277 10.2879C6.96926 10.2879 7.18072 10.247 7.34717 10.1651C7.51361 10.0833 7.64049 9.96185 7.72781 9.80087C7.81785 9.63988 7.87106 9.43933 7.88743 9.19921Z" fill="white"/>
    
    <path d="M14.8126 8.05729V8.3397C14.8126 8.79265 14.7512 9.19921 14.6284 9.55938C14.5057 9.91956 14.3324 10.2265 14.1087 10.4803C13.8849 10.7313 13.6175 10.9237 13.3064 11.0574C12.9981 11.1911 12.6557 11.2579 12.2791 11.2579C11.9053 11.2579 11.5629 11.1911 11.2518 11.0574C10.9435 10.9237 10.6761 10.7313 10.4496 10.4803C10.2231 10.2265 10.0471 9.91956 9.92161 9.55938C9.79882 9.19921 9.73743 8.79265 9.73743 8.3397V8.05729C9.73743 7.60161 9.79882 7.19505 9.92161 6.8376C10.0444 6.47743 10.2177 6.17046 10.4414 5.9167C10.6679 5.66294 10.9353 5.46921 11.2436 5.3355C11.5547 5.2018 11.8971 5.13495 12.2709 5.13495C12.6475 5.13495 12.9899 5.2018 13.2983 5.3355C13.6093 5.46921 13.8767 5.66294 14.1005 5.9167C14.3269 6.17046 14.5016 6.47743 14.6244 6.8376C14.7499 7.19505 14.8126 7.60161 14.8126 8.05729ZM13.5725 8.3397V8.0491C13.5725 7.73258 13.5438 7.45427 13.4865 7.21415C13.4292 6.97403 13.3446 6.77211 13.2328 6.6084C13.1209 6.44468 12.9845 6.3219 12.8235 6.24004C12.6625 6.15545 12.4783 6.11316 12.2709 6.11316C12.0636 6.11316 11.8794 6.15545 11.7184 6.24004C11.5601 6.3219 11.4251 6.44468 11.3132 6.6084C11.2041 6.77211 11.1208 6.97403 11.0635 7.21415C11.0062 7.45427 10.9776 7.73258 10.9776 8.0491V8.3397C10.9776 8.65349 11.0062 8.93181 11.0635 9.17465C11.1208 9.41477 11.2054 9.61805 11.3173 9.78449C11.4292 9.94821 11.5656 10.0724 11.7266 10.1569C11.8876 10.2415 12.0717 10.2838 12.2791 10.2838C12.4865 10.2838 12.6707 10.2415 12.8317 10.1569C12.9927 10.0724 13.1277 9.94821 13.2369 9.78449C13.346 9.61805 13.4292 9.41477 13.4865 9.17465C13.5438 8.93181 13.5725 8.65349 13.5725 8.3397Z" fill="white"/>
    
    <path d="M17.5262 11.1761H16.2288L16.237 10.2183H17.5262C17.8482 10.2183 18.1197 10.146 18.3407 10.0014C18.5617 9.85407 18.7282 9.63988 18.8401 9.35883C18.9547 9.07779 19.012 8.73807 19.012 8.3397V8.0491C19.012 7.7435 18.9792 7.47473 18.9137 7.2428C18.851 7.01087 18.7568 6.81577 18.6313 6.65751C18.5058 6.49925 18.3516 6.38056 18.1688 6.30143C17.986 6.21957 17.7759 6.17864 17.5385 6.17864H16.2042V5.21681H17.5385C17.9369 5.21681 18.3012 5.28503 18.6313 5.42146C18.9642 5.55516 19.2521 5.74752 19.4949 5.99856C19.7378 6.24959 19.9247 6.54973 20.0556 6.899C20.1893 7.24553 20.2562 7.63163 20.2562 8.05729V8.3397C20.2562 8.76263 20.1893 9.14873 20.0556 9.49799C19.9247 9.84725 19.7378 10.1474 19.4949 10.3984C19.2548 10.6467 18.9669 10.8391 18.6313 10.9755C18.2984 11.1092 17.9301 11.1761 17.5262 11.1761ZM16.9246 5.21681V11.1761H15.6967V5.21681H16.9246Z" fill="white"/>
    
  </g>
  
  <defs>
    
    <clipPath id="clip0_17394_170165">
      
      <rect fill="white" height="16.7512" transform="translate(0.523438)" width="23.2655"/>
      
    </clipPath>
    
  </defs>
  
</svg>
