<?xml version="1.0" encoding="UTF-8" standalone="no"?>
<svg xmlns="http://www.w3.org/2000/svg" fill="none" height="21" viewBox="0 0 152 21" width="152">
  
  <path d="M152 3.1184V0.5H136.188V20.0674H152V17.449H138.821V11.4927H150.832V9.07924H138.821V3.1184H152Z" fill="black"/>
  
  <path d="M2.63388 0.5H0V20.0674H15.7895V17.449H2.63388V0.5Z" fill="black"/>
  
  <path d="M83.0258 10.4408C83.0258 14.7532 80.0667 17.8862 75.8112 17.8862C71.5695 17.8862 68.6104 14.7532 68.6104 10.4408V0.5H65.9766L65.9811 10.1403C65.9811 16.1421 70.0488 20.5 75.8158 20.5C81.5966 20.5 85.6597 16.1421 85.6597 10.1403V0.5H83.0258V10.4408Z" fill="black"/>
  
  <path d="M31.3273 0.5H28.5606L19.3672 20.0674H22.1339L29.9439 3.44171L37.754 20.0674H40.5207L31.3273 0.5Z" fill="black"/>
  
  <path d="M120.204 0.5H113.617V3.1184H120.506C124.844 3.1184 127.996 6.06011 127.996 10.2905C127.996 14.5073 124.844 17.449 120.506 17.449H113.617V20.0674H120.204C126.246 20.0674 130.63 16.0237 130.63 10.2905C130.625 4.53916 126.241 0.5 120.204 0.5Z" fill="black"/>
  
  <path d="M108.763 6.86718C108.763 0.264266 101.223 0.501061 101.223 0.501061H91.75V20.0685H94.3839V3.11946H101.227C101.227 3.11946 106.133 2.94186 106.133 6.86718C106.133 10.8745 101.227 10.6422 101.227 10.6422H96.9216L105.675 20.0685H108.758L102.034 12.9236C104.328 12.9236 108.763 11.981 108.763 6.86718Z" fill="black"/>
  
  <path d="M61.1298 0.5H44.4149V3.1184H56.9064L44.1172 18.7878V20.0674H46.2151H61.1298V17.449H48.3497L61.1298 1.78871V0.5Z" fill="black"/>
  
  <path d="M13.0312 6.12842H15.7934L18.4364 0.5H15.6743L13.0312 6.12842Z" fill="black"/>
  
</svg>
