<?xml version="1.0" encoding="UTF-8" standalone="no"?>
<svg xmlns="http://www.w3.org/2000/svg" fill="none" height="17" viewBox="0 0 23 17" width="23">
  
  <g clip-path="url(#clip0_17394_170149)">
    
    <path d="M4.35398 16.3641V15.2932C4.35398 14.8835 4.10444 14.6152 3.67605 14.6152C3.46186 14.6152 3.22895 14.6859 3.06882 14.9189C2.94405 14.7234 2.76521 14.6152 2.49695 14.6152C2.3181 14.6152 2.13926 14.6693 1.99785 14.8648V14.6506H1.62354V16.3641H1.99785V15.4179C1.99785 15.1143 2.15798 14.9708 2.40753 14.9708C2.65707 14.9708 2.78184 15.131 2.78184 15.4179V16.3641H3.15616V15.4179C3.15616 15.1143 3.335 14.9708 3.56583 14.9708C3.81538 14.9708 3.94015 15.131 3.94015 15.4179V16.3641H4.35398ZM9.90638 14.6506H9.29915V14.1328H8.92483V14.6506H8.58587V14.9896H8.92483V15.7756C8.92483 16.1687 9.08496 16.3995 9.51335 16.3995C9.67347 16.3995 9.85231 16.3454 9.97709 16.2747L9.86895 15.9524C9.76081 16.0231 9.63604 16.0418 9.54662 16.0418C9.36778 16.0418 9.29707 15.9337 9.29707 15.7569V14.9896H9.9043V14.6506H9.90638ZM13.0839 14.6132C12.8697 14.6132 12.7262 14.7213 12.6368 14.8627V14.6485H12.2625V16.3621H12.6368V15.3971C12.6368 15.1122 12.7616 14.95 12.9945 14.95C13.0652 14.95 13.1546 14.9688 13.2274 14.9854L13.3356 14.6277C13.2607 14.6132 13.1546 14.6132 13.0839 14.6132ZM8.28225 14.792C8.10341 14.6672 7.85387 14.6132 7.5856 14.6132C7.15722 14.6132 6.87232 14.8274 6.87232 15.1663C6.87232 15.4512 7.08651 15.6134 7.46083 15.6654L7.63967 15.6841C7.83515 15.7195 7.94329 15.7735 7.94329 15.863C7.94329 15.9877 7.7998 16.0772 7.55025 16.0772C7.3007 16.0772 7.10315 15.9877 6.97837 15.8983L6.79953 16.1832C6.99501 16.3267 7.26327 16.3974 7.53153 16.3974C8.03063 16.3974 8.3176 16.1645 8.3176 15.8443C8.3176 15.5406 8.08469 15.3805 7.72909 15.3264L7.55025 15.3077C7.39013 15.289 7.26535 15.2537 7.26535 15.1476C7.26535 15.0228 7.39013 14.9521 7.58768 14.9521C7.80188 14.9521 8.01607 15.0415 8.12421 15.0956L8.28225 14.792ZM18.2412 14.6132C18.027 14.6132 17.8835 14.7213 17.7941 14.8627V14.6485H17.4198V16.3621H17.7941V15.3971C17.7941 15.1122 17.9189 14.95 18.1518 14.95C18.2225 14.95 18.3119 14.9688 18.3847 14.9854L18.4928 14.6319C18.4201 14.6132 18.314 14.6132 18.2412 14.6132ZM13.4583 15.5074C13.4583 16.0252 13.8159 16.3995 14.3691 16.3995C14.6186 16.3995 14.7975 16.3454 14.9763 16.204L14.7975 15.9004C14.654 16.0085 14.5126 16.0605 14.3504 16.0605C14.0468 16.0605 13.8326 15.8463 13.8326 15.5074C13.8326 15.185 14.0468 14.9708 14.3504 14.9542C14.5105 14.9542 14.654 15.0083 14.7975 15.1143L14.9763 14.8107C14.7975 14.6672 14.6186 14.6152 14.3691 14.6152C13.8159 14.6132 13.4583 14.9896 13.4583 15.5074ZM16.9207 15.5074V14.6506H16.5464V14.8648C16.4216 14.7047 16.2428 14.6152 16.0099 14.6152C15.5274 14.6152 15.1531 14.9896 15.1531 15.5074C15.1531 16.0252 15.5274 16.3995 16.0099 16.3995C16.2594 16.3995 16.4382 16.3101 16.5464 16.1499V16.3641H16.9207V15.5074ZM15.5461 15.5074C15.5461 15.2037 15.7416 14.9542 16.0639 14.9542C16.3675 14.9542 16.5817 15.1871 16.5817 15.5074C16.5817 15.811 16.3675 16.0605 16.0639 16.0605C15.7437 16.0418 15.5461 15.8089 15.5461 15.5074ZM11.0668 14.6132C10.5677 14.6132 10.21 14.9708 10.21 15.5053C10.21 16.0418 10.5677 16.3974 11.0855 16.3974C11.335 16.3974 11.5846 16.3267 11.7821 16.1645L11.6033 15.8962C11.4598 16.0044 11.281 16.0751 11.1042 16.0751C10.8713 16.0751 10.6405 15.9669 10.5864 15.6654H11.8528C11.8528 15.6113 11.8528 15.576 11.8528 15.5219C11.8695 14.9708 11.5471 14.6132 11.0668 14.6132ZM11.0668 14.9355C11.2997 14.9355 11.4598 15.079 11.4952 15.3452H10.603C10.6384 15.1143 10.7985 14.9355 11.0668 14.9355ZM20.3665 15.5074V13.9727H19.9922V14.8648C19.8674 14.7047 19.6886 14.6152 19.4557 14.6152C18.9732 14.6152 18.5989 14.9896 18.5989 15.5074C18.5989 16.0252 18.9732 16.3995 19.4557 16.3995C19.7052 16.3995 19.8841 16.3101 19.9922 16.1499V16.3641H20.3665V15.5074ZM18.9919 15.5074C18.9919 15.2037 19.1874 14.9542 19.5097 14.9542C19.8134 14.9542 20.0275 15.1871 20.0275 15.5074C20.0275 15.811 19.8134 16.0605 19.5097 16.0605C19.1874 16.0418 18.9919 15.8089 18.9919 15.5074ZM6.46057 15.5074V14.6506H6.08625V14.8648C5.96147 14.7047 5.78263 14.6152 5.54972 14.6152C5.06727 14.6152 4.69295 14.9896 4.69295 15.5074C4.69295 16.0252 5.06727 16.3995 5.54972 16.3995C5.79927 16.3995 5.97811 16.3101 6.08625 16.1499V16.3641H6.46057V15.5074ZM5.06935 15.5074C5.06935 15.2037 5.26483 14.9542 5.58716 14.9542C5.89077 14.9542 6.10496 15.1871 6.10496 15.5074C6.10496 15.811 5.89077 16.0605 5.58716 16.0605C5.26483 16.0418 5.06935 15.8089 5.06935 15.5074Z" fill="white"/>
    
    <path d="M14.3397 1.63672H8.71655V11.7392H14.3397V1.63672Z" fill="#CC0000"/>
    
    <path d="M9.09183 6.68752C9.09183 4.63501 10.0567 2.81333 11.5374 1.6363C10.4477 0.779526 9.07311 0.261719 7.57376 0.261719C4.02189 0.261719 1.14795 3.13566 1.14795 6.68752C1.14795 10.2394 4.02189 13.1133 7.57376 13.1133C9.07311 13.1133 10.4477 12.5955 11.5374 11.7387C10.0547 10.5784 9.09183 8.74004 9.09183 6.68752Z" fill="#CC0000"/>
    
    <path d="M21.926 6.68752C21.926 10.2394 19.0521 13.1133 15.5002 13.1133C14.0009 13.1133 12.6263 12.5955 11.5366 11.7387C13.036 10.5596 13.9822 8.74004 13.9822 6.68752C13.9822 4.63501 13.0173 2.81333 11.5366 1.6363C12.6242 0.779526 13.9988 0.261719 15.4982 0.261719C19.0521 0.261719 21.926 3.15437 21.926 6.68752Z" fill="#FF9900"/>
    
  </g>
  
  <defs>
    
    <clipPath id="clip0_17394_170149">
      
      <rect fill="white" height="16.7512" transform="translate(0.98877)" width="21.2181"/>
      
    </clipPath>
    
  </defs>
  
</svg>
