<?xml version="1.0" encoding="UTF-8" standalone="no"?>
<svg xmlns="http://www.w3.org/2000/svg" fill="none" height="40" viewBox="0 0 43 40" width="43">
  
  <path d="M34.3374 11.2837L27.3272 10.2768L24.1921 3.99789C22.9817 1.57322 19.4802 1.57232 18.2693 3.99781L15.1342 10.2768L8.12396 11.2837C5.41704 11.6724 4.33436 14.9637 6.29372 16.8517L11.3664 21.7392L10.1689 28.6404C9.70647 31.3051 12.5383 33.3402 14.9607 32.0817L21.2307 28.8232L27.5009 32.0817C29.9261 33.3418 32.7539 31.2991 32.2924 28.6404L31.0949 21.7392L36.1677 16.8517C38.1263 14.9643 37.0454 11.6727 34.3374 11.2837ZM11.1736 2.87958L9.48081 0.57673C9.02129 -0.0482497 8.13615 -0.18687 7.50387 0.267356C6.87151 0.721499 6.73135 1.59642 7.1908 2.22148L8.88353 4.52434C9.34331 5.14964 10.2285 5.28777 10.8605 4.83371C11.4928 4.37965 11.633 3.50464 11.1736 2.87958ZM5.5562 23.5174C5.31462 22.7826 4.51631 22.3801 3.77274 22.6192L0.978327 23.5167C0.23492 23.7553 -0.171864 24.5447 0.0696355 25.2796C0.311633 26.0158 1.1116 26.4163 1.8531 26.1778L4.64759 25.2803C5.391 25.0416 5.79778 24.2523 5.5562 23.5174ZM34.9576 0.267356C34.3253 -0.18687 33.4402 -0.0483317 32.9806 0.57673L31.2879 2.87958C30.8284 3.50464 30.9686 4.37965 31.601 4.83371C32.2336 5.28802 33.1186 5.14915 33.5779 4.52434L35.2707 2.22148C35.7302 1.59642 35.59 0.721499 34.9576 0.267356ZM41.4831 23.5167L38.6886 22.6192C37.9452 22.38 37.1468 22.7825 36.9052 23.5174C36.6636 24.2522 37.0704 25.0415 37.8139 25.2803L40.6084 26.1778C41.3503 26.4163 42.1499 26.0154 42.3918 25.2796C42.6333 24.5448 42.2265 23.7555 41.4831 23.5167ZM21.2307 34.3625C20.4491 34.3625 19.8154 34.9889 19.8154 35.7615V38.601C19.8154 39.3736 20.4491 40 21.2307 40C22.0123 40 22.646 39.3736 22.646 38.601V35.7615C22.6461 34.9889 22.0124 34.3625 21.2307 34.3625Z" fill="black"/>
  
</svg>
