<?xml version="1.0" encoding="UTF-8" standalone="no"?>
<svg xmlns="http://www.w3.org/2000/svg" fill="none" height="40" viewBox="0 0 53 40" width="53">
  
  <path d="M51.4061 31.5597H49.7792V22.3467C49.7792 21.2687 49.4579 20.2111 48.8619 19.3163L44.7843 13.2013C44.2934 12.4664 43.6321 11.8646 42.8582 11.4486C42.0843 11.0325 41.2214 10.815 40.3452 10.8149H34.0247C33.2815 10.8149 32.6856 11.425 32.6856 12.1708V31.5599H22.3343C23.3185 32.4208 23.9947 33.6208 24.1889 34.9767H35.1026C35.4909 32.2853 37.7808 30.2039 40.546 30.2039C43.3113 30.2039 45.5945 32.2853 45.9829 34.9767H51.4062C51.7745 34.9767 52.0758 34.6716 52.0758 34.2987V32.2378C52.0757 31.865 51.7745 31.5597 51.4061 31.5597ZM44.7375 20.5365H36.3948C36.3068 20.5368 36.2196 20.5195 36.1382 20.4855C36.0569 20.4515 35.9829 20.4016 35.9207 20.3386C35.8585 20.2756 35.8092 20.2007 35.7756 20.1183C35.7421 20.0359 35.725 19.9476 35.7253 19.8585V15.174C35.7253 14.8011 36.0266 14.496 36.3948 14.496H41.4768C41.6978 14.496 41.8986 14.6045 42.0258 14.7808L45.2865 19.4721C45.5944 19.9196 45.2797 20.5365 44.7375 20.5365ZM40.546 31.5597C38.2428 31.5597 36.3814 33.4511 36.3814 35.7832C36.3814 38.1086 38.2428 40 40.546 40C42.8426 40 44.7107 38.1086 44.7107 35.7832C44.7107 33.4513 42.8426 31.5597 40.546 31.5597ZM40.546 37.8918C39.3943 37.8918 38.4637 36.9427 38.4637 35.7835C38.4637 34.6173 39.3943 33.6749 40.546 33.6749C41.6976 33.6749 42.6284 34.6173 42.6284 35.7835C42.6284 36.9427 41.6977 37.8918 40.546 37.8918ZM5.82312 31.5597C5.45484 31.5597 5.15354 31.865 5.15354 32.2377V34.2987C5.15354 34.6716 5.45484 34.9767 5.82312 34.9767H13.3087C13.5028 33.6208 14.1791 32.4208 15.1567 31.5599H5.82312V31.5597ZM18.7454 31.5597C16.4489 31.5597 14.5808 33.4511 14.5808 35.7832C14.5808 38.1086 16.4489 40 18.7454 40C21.0486 40 22.91 38.1086 22.91 35.7832C22.9101 33.4513 21.0487 31.5597 18.7454 31.5597ZM18.7454 37.8918C17.5938 37.8918 16.6631 36.9427 16.6631 35.7835C16.6631 34.6173 17.5938 33.6749 18.7454 33.6749C19.897 33.6749 20.8277 34.6173 20.8277 35.7835C20.8277 36.9427 19.897 37.8918 18.7454 37.8918ZM28.762 6.61161H21.0018C21.3835 7.75733 21.5844 8.98438 21.5844 10.2522C21.5844 16.6519 16.4422 21.8585 10.1217 21.8585C8.96996 21.8585 7.85186 21.6823 6.80064 21.3636V28.8549C6.80064 29.2278 7.10195 29.5329 7.47023 29.5329H30.101C30.4694 29.5329 30.7706 29.2278 30.7706 28.8549V8.64544C30.7705 7.52005 29.8733 6.61161 28.762 6.61161ZM10.1232 0C4.53229 0 0 4.58899 0 10.2499C0 15.9109 4.53229 20.5 10.1232 20.5C15.7141 20.5 20.2465 15.9109 20.2465 10.2499C20.2465 4.58899 15.7141 0 10.1232 0ZM10.1232 18.1674C5.80465 18.1674 2.30367 14.6227 2.30367 10.2499C2.30367 5.87721 5.80465 2.33245 10.1232 2.33245C14.4418 2.33245 17.9427 5.8773 17.9427 10.2499C17.9427 14.6227 14.4418 18.1674 10.1232 18.1674ZM13.1096 11.9221C13.0234 11.9221 12.935 11.9108 12.8474 11.887L9.58474 10.9966C9.37159 10.9383 9.18334 10.8105 9.04909 10.6331C8.91483 10.4556 8.84204 10.2383 8.84198 10.0147V4.93017C8.84198 4.36877 9.29185 3.91326 9.84631 3.91326C10.4008 3.91326 10.8506 4.36877 10.8506 4.93017V9.23553L13.3705 9.92332C13.9061 10.0696 14.2231 10.6278 14.0786 11.1699C13.9577 11.6235 13.5524 11.9221 13.1096 11.9221Z" fill="black"/>
  
</svg>
